<svg xmlns="http://www.w3.org/2000/svg" viewBox="0 0 22 20" width="22" height="20">
	<style>
		tspan { white-space:pre }
		.shp0 { fill: #243f4d } 
	</style>
	<path id="Shape 16" fill-rule="evenodd" class="shp0" d="M7.53 18.98C6.99 18.98 6.46 18.77 6.06 18.37C5.47 17.78 5.29 16.89 5.61 16.11C5.93 15.33 6.69 14.83 7.53 14.83C7.53 14.83 7.53 14.83 7.53 14.83C8.08 14.83 8.6 15.04 8.99 15.43C9.39 15.83 9.6 16.35 9.6 16.9C9.6 17.74 9.1 18.49 8.33 18.82C8.07 18.93 7.8 18.98 7.53 18.98ZM7.53 16.01C7.53 16.01 7.53 16.01 7.53 16.01C7.17 16.01 6.85 16.23 6.71 16.56C6.57 16.9 6.65 17.28 6.9 17.53C7.16 17.79 7.54 17.86 7.87 17.72C8.2 17.58 8.42 17.26 8.42 16.9C8.42 16.66 8.32 16.44 8.16 16.27C7.99 16.11 7.77 16.01 7.53 16.01ZM15.92 18.98C15.38 18.98 14.85 18.77 14.46 18.37C13.86 17.78 13.68 16.89 14 16.11C14.33 15.33 15.08 14.83 15.92 14.83C16.46 14.79 17 15.05 17.39 15.43C17.78 15.83 17.99 16.35 17.99 16.9C18 17.74 17.5 18.49 16.72 18.82C16.46 18.93 16.19 18.98 15.92 18.98ZM15.92 16.01C15.92 16.01 15.92 16.01 15.92 16.01C15.59 16.05 15.24 16.23 15.1 16.56C14.96 16.9 15.04 17.28 15.29 17.53C15.55 17.79 15.93 17.86 16.26 17.72C16.6 17.58 16.81 17.26 16.81 16.9C16.81 16.66 16.72 16.44 16.55 16.27C16.38 16.11 16.16 16.01 15.92 16.01ZM4.65 16.18C4.56 16.18 4.48 16.16 4.4 16.12C4.1 15.98 3.97 15.63 4.11 15.34C4.69 14.1 5.74 13.36 7.16 13.18L6.11 7.79C6.05 7.47 6.25 7.16 6.58 7.1C6.9 7.03 7.21 7.25 7.27 7.57L8.36 13.14L17.79 13.14L19.59 6.37C19.58 6.37 6.3 6.37 6.29 6.37C4.16 6.37 2.32 4.79 2.01 2.68C1.96 2.36 2.18 2.05 2.5 2.01C2.82 1.95 3.13 2.18 3.18 2.51C3.41 4.04 4.74 5.19 6.29 5.19C6.3 5.19 6.31 5.19 6.31 5.19L20.36 5.19C20.55 5.19 20.72 5.27 20.83 5.42C20.95 5.57 20.98 5.76 20.94 5.93L18.81 13.89C18.74 14.15 18.51 14.33 18.24 14.33L7.88 14.33C7.88 14.33 7.87 14.33 7.86 14.33C6.53 14.33 5.66 14.82 5.18 15.84C5.08 16.05 4.87 16.18 4.65 16.18Z" />
</svg>