<svg xmlns="http://www.w3.org/2000/svg" viewBox="0 0 24 23" width="24" height="23">
	<style>
		tspan { white-space:pre }
		.shp0 { fill: #ffffff } 
	</style>
	<path id="Ellipse 32" class="shp0" d="M4.15 5.88C2.96 5.88 2 4.92 2 3.74C2 2.55 2.96 1.59 4.15 1.59C5.33 1.59 6.29 2.55 6.29 3.74C6.29 4.92 5.33 5.88 4.15 5.88ZM4.15 13.75C2.96 13.75 2 12.79 2 11.6C2 10.42 2.96 9.46 4.15 9.46C5.33 9.46 6.29 10.42 6.29 11.6C6.29 12.79 5.33 13.75 4.15 13.75ZM4.15 21.62C2.96 21.62 2 20.66 2 19.47C2 18.29 2.96 17.33 4.15 17.33C5.33 17.33 6.29 18.29 6.29 19.47C6.29 20.66 5.33 21.62 4.15 21.62ZM12.01 5.88C10.83 5.88 9.87 4.92 9.87 3.74C9.87 2.55 10.83 1.59 12.01 1.59C13.2 1.59 14.16 2.55 14.16 3.74C14.16 4.92 13.2 5.88 12.01 5.88ZM12.01 13.75C10.83 13.75 9.87 12.79 9.87 11.6C9.87 10.42 10.83 9.46 12.01 9.46C13.2 9.46 14.16 10.42 14.16 11.6C14.16 12.79 13.2 13.75 12.01 13.75ZM12.01 21.62C10.83 21.62 9.87 20.66 9.87 19.47C9.87 18.29 10.83 17.33 12.01 17.33C13.2 17.33 14.16 18.29 14.16 19.47C14.16 20.66 13.2 21.62 12.01 21.62ZM19.88 5.88C18.7 5.88 17.74 4.92 17.74 3.74C17.74 2.55 18.7 1.59 19.88 1.59C21.07 1.59 22.03 2.55 22.03 3.74C22.03 4.92 21.07 5.88 19.88 5.88ZM19.88 13.75C18.7 13.75 17.74 12.79 17.74 11.6C17.74 10.42 18.7 9.46 19.88 9.46C21.07 9.46 22.03 10.42 22.03 11.6C22.03 12.79 21.07 13.75 19.88 13.75ZM19.88 21.62C18.7 21.62 17.74 20.66 17.74 19.47C17.74 18.29 18.7 17.33 19.88 17.33C21.07 17.33 22.03 18.29 22.03 19.47C22.03 20.66 21.07 21.62 19.88 21.62Z" />
</svg>