<svg xmlns="http://www.w3.org/2000/svg" viewBox="0 0 21 19" width="21" height="19">
	<style>
		tspan { white-space:pre }
		.shp0 { fill: #243f4d } 
	</style>
	<path id="Shape 55" class="shp0" d="M10.91 17.24C10.82 17.24 10.72 17.23 10.63 17.19C10.28 17.04 1.98 13.44 1.98 6.43C2.07 3.78 4.19 1.72 6.8 1.72C8.54 1.72 10.07 2.64 10.91 4.03C11.76 2.64 13.28 1.72 15.03 1.72C17.63 1.72 19.75 3.78 19.84 6.4C19.84 13.44 11.55 17.04 11.19 17.19C11.1 17.23 11.01 17.24 10.91 17.24ZM6.8 3.11C4.95 3.11 3.46 4.58 3.39 6.45C3.39 11.86 9.52 15.11 10.91 15.79C12.31 15.11 18.43 11.86 18.43 6.43C18.37 4.58 16.87 3.11 15.03 3.11C13.18 3.11 11.68 4.58 11.62 6.45C11.6 6.83 11.29 7.12 10.91 7.12L10.91 7.12C10.53 7.12 10.22 6.83 10.21 6.45C10.14 4.58 8.65 3.11 6.8 3.11Z" />
</svg>