<svg xmlns="http://www.w3.org/2000/svg" viewBox="0 0 19 20" width="19" height="20">
	<style>
		tspan { white-space:pre }
		.shp0 { fill: #243f4d } 
	</style>
	<path id="icon" class="shp0" d="M4.7 8.08C5.06 8.01 5.38 8.21 5.45 8.56C5.54 9.14 5.8 9.63 6.23 10.05C6.65 10.44 7.17 10.73 7.72 10.83C8.05 10.89 8.27 11.22 8.21 11.57C8.14 11.89 7.85 12.13 7.49 12.08C6.68 11.92 5.94 11.54 5.35 10.95C4.77 10.37 4.38 9.63 4.22 8.82C4.15 8.46 4.34 8.14 4.7 8.08ZM7.98 2C11.45 2 14.26 4.8 14.26 8.25C14.26 9.18 14.06 10.06 13.69 10.86L16.03 12.89C17.73 14.64 16.77 16.16 16.32 16.61C15.9 17.06 14.33 18.02 12.59 16.32L10.53 13.97C9.75 14.31 8.89 14.51 7.98 14.51C4.51 14.51 1.7 11.71 1.7 8.25C1.7 4.79 4.51 2 7.98 2ZM13.53 15.51C13.82 15.84 14.65 16.38 15.41 15.74C15.62 15.56 16.04 14.67 15.18 13.87L13.02 11.99C12.63 12.5 12.18 12.95 11.65 13.33L13.53 15.51ZM7.98 13.2C10.72 13.2 12.95 10.98 12.95 8.25C12.95 5.52 10.72 3.31 7.98 3.31C5.24 3.31 3.01 5.52 3.01 8.25C3.01 10.98 5.24 13.2 7.98 13.2Z" />
</svg>